<?xml version="1.0" encoding="utf-8"?>
<!-- Generator: Adobe Illustrator 19.2.0, SVG Export Plug-In . SVG Version: 6.00 Build 0)  -->
<svg version="1.1" id="Layer_1" xmlns="http://www.w3.org/2000/svg" xmlns:xlink="http://www.w3.org/1999/xlink" x="0px" y="0px"
	 viewBox="0 0 600 750" style="enable-background:new 0 0 600 750;" xml:space="preserve">
<style type="text/css">
	.st0{fill:#FFFFFF;stroke:#231F20;stroke-miterlimit:10;}
	.st1{fill:#010101;}
	.st2{fill:none;stroke:#010101;stroke-miterlimit:10;}
	.st3{fill:#FFFFFF;stroke:#C7B7CE;stroke-miterlimit:10;}
	.st4{fill:none;stroke:#754243;stroke-miterlimit:10;}
	.st5{fill:none;stroke:#EE2324;stroke-miterlimit:10;}
	.st6{fill:none;stroke:#9B1C20;stroke-miterlimit:10;}
	.st7{fill:none;stroke:#ED1C24;stroke-miterlimit:10;}
	.st8{fill:none;stroke:#59595A;stroke-miterlimit:10;}
	.st9{fill:none;stroke:#C7B7CE;stroke-miterlimit:10;}
</style>
<rect x="264.9" y="445.6" class="st0" width="88.3" height="141.7"/>
<rect x="353.2" y="445.6" class="st0" width="88.3" height="141.7"/>
<rect x="175.9" y="445.6" class="st0" width="88.3" height="141.7"/>
<path class="st1" d="M605,359.4c-10.8-0.1-15.8-1.4-25.5-3c0-44.9,0-89.9,0-134.9c32-5.3,54.8-4.9,87.3-0.1c0,0.9,0.3,1.8,0.3,2.6
	c0,17,0,34,0.3,51.2c0,3.3-1.1,3.8-7.3,7.9c-8.7,6.3,0,0-8.7,6.3c8.4,6.3,0.4,0.3,8.4,6.3c6.1,4.1,7.3,4.5,7.3,7.4
	c0,17.4-0.3,34.9-0.3,52.3c0,0.3-0.3,0.4-0.3,0.6c-6.8,1.9-16.6,3.4-26.1,3.2c0-1,0-2.1,0-3.2c0-15.3,0-30.5,0.3-45.6
	c0-3.7-0.6-5.6-7.3-8.9c-1.3-0.7-0.7-0.5-2-1.1c-8.7-4.1-13.9-3.4-26.6-3.4c-0.5,6.7-0.3,13.6-0.3,20.5c0,6.9,0,13.9,0,20.9
	C605,345.4,605,352.3,605,359.4z M605,232.9c0,16.5,0,32.8,0,49c11.1,0.9,17.7-0.3,27.4-4c0.8-0.3,1.4-0.5,2.2-1
	c5.9-3.8,6.2-4.4,6.2-7.6c0-6.8,0-6.6,0-10c0-7.7,0-15.4,0-22.9c0-1.1,0-2.1,0-3.3C628.9,231.8,617.2,231.6,605,232.9z"/>
<path class="st2" d="M-97.3,376.1c-6.2,0-9.5,0-15.7,0c0-1.2,0-2.4,0-3.4c0-6.6,0-13.2,0-19.7c0-2.4-13-2.4-18.5-2.4
	c0,42.2,0,84.3,0,126.8c-8.4,0-8.9,0-17.3,0c0-42.4,0-84.6,0-127.1c-4.4,0-17.1,0.3-17.1,2.4c0,8.5,0,14.7,0,23.4
	c-6.4,0.2-11.1,0.1-17.1,0.1c0-5.9,0.2-27.5,0.3-35.9c24.2-4.4,60.6-3.9,85.2-0.1C-97.3,352-97.3,363.9-97.3,376.1z"/>
<path class="st1" d="M330.5,517.8c6,2.7,11.3,5.1,16.5,7.5c2.9,1.2,4.5,2.7,4.5,4.7c0,17.6,0,35.1,0,52.5c0,0.6-0.3,1.1-0.3,1.9
	c-31.4,4.5-53.8,4.9-85.2-0.1c0-44.5,0-88.9,0-133.5c31.4-4.9,53.8-4.5,85.5,0c0,1.1,0,2.1,0,3.1c0,16.8,0,33.6,0,50.6
	c0,2.7-1.6,4.7-5.8,6.6C340.5,513.2,335.8,515.4,330.5,517.8z M290.9,462.2c0,15.9,0,31.9,0,47.8c11.5,1.7,16,1.1,24.1-2.6
	c2.4-1.1,4.7-2.4,7.1-3.4c3.4-1.4,4.7-3.2,4.7-5.4c0-11.1,0-22.2,0-33.1c0-1.1-0.5-2.2-0.8-3.4C313.7,461.3,302.5,461.1,290.9,462.2
	z M292,524.9c-2.6,4.1-2.1,43.3,0.5,48.3c10,0.9,20.2,0.9,30.4,0c3.4-0.2,3.9-1.2,3.9-2.5c0-11.6,0-23,0-34.6c0-1.6-1-2.9-3.4-4
	c-4.2-2-8.4-4-12.3-5.9c-1.8-0.9-3.9-1.4-6.8-1.2C300.1,524.9,296.2,524.9,292,524.9z"/>
<path class="st1" d="M263.1,452.7c0,1.4,0.3,2.2,0.3,3.1c0,16.2,0,32.5,0,48.7c0,2.7-1.5,5-5.8,6.8c-4.6,2-8.4,4.2-13.2,6.6
	c3.3,1.6,5.8,3.4,9.1,4.6c7.1,2.7,9.9,6.5,9.9,10.7c0,4.7,0,9.6-0.3,14.3c0,4.6,0,9.1,0,13.7c0,6.6,0,13.2,0,19.7
	c0,0.5-0.3,0.9-0.5,1.7c-5.2-1.2-31.6-8.8-58.3-22.7c-19.8-12.6-28.7-26.9-28.4-42.6c0.3-16.1,9.9-30.5,30.7-43.1
	C225,463.2,244.8,457.1,263.1,452.7z M197.1,523.8c0,18.6,27.3,24.3,39.4,30.9c1,0.6,2.8,1,4.8,1.9c0.3-1.2,0.3-2,0.3-2.7
	c0-3.4,0-6.7,0-10.1c0-8.1-3.1-11.7-14.8-17.7C222.3,523.6,203.2,523.1,197.1,523.8z M196.3,510.2c7.6,1.1,24.3,2.6,30.5-0.2
	c6.7-3.2,4.5-2.2,9.9-5.1c2.2-1.2,2-3.2,2-4.8c0-11.1,0-11.1,0-16.7c0-0.6,0,0,0-7.7C205.1,491.2,199.6,499.1,196.3,510.2z"/>
<path class="st1" d="M353.7,451.5c2.9,0.6,5.6,1.1,8,1.8c45.7,11.1,67.4,27.5,77.3,47.9c0.3,0.4,0.3,0.8,0.5,1.1
	c2.1,6,2.9,4.5-5.1,8.3c-4.3,2-8.5,4.2-13.3,6.4c5.3,2.5,0,0,15.5,7.3c5.7,2.9,5.9,3.8,3.7,6.4c-4.8,6.2-9.1,12.4-14.7,18.4
	c-7.5,8.2-17.8,15.9-32.5,21.6c-11.2,4.3-21.6,8.4-35.5,11.7c-1.1,0.4-2.4,0.6-4.3,1.1C353.7,539.4,353.7,495.6,353.7,451.5z
	 M376,479.9c0,10.3,0,22.2,0,31.7c13.7,0,11.3,1.2,25.1-2.5c6.2-1.9,6-1.7,8.1-2.5c3.5-1.4-2.5-8.2-3.8-10.1
	c-4.5-6.2-7.4-9.2-14.7-13C385.9,480.7,379.8,479.9,376,479.9z M376.3,524.3c-1.3,3.7-1.1,26.2,0.3,28.1c1.3,0.4,9.8-0.6,9.8-0.7
	c19.1-5,20-9.4,25.1-16.7c1.3-2.2-2.4-4.3-3.7-5.1c-2.9-1.3-3-1.4-10.9-4.1C391.4,524,381.4,523.6,376.3,524.3z"/>
<polygon class="st3" points="353.4,593.4 370.4,593.3 370.4,593.3 353.4,593.4 "/>
<path class="st1" d="M578.3,221.4c0,1,0,0,0,2.7c0.1,17,0,33.8,0.3,50.8c0,3.3-2.1,5.5-6.7,7.6c-4.4,1.8-8,4.2-12.4,6.7
	c3.6,1.8,7.2,4,11.6,5.9c5.9,2.5,7.7,5.5,7.7,9.4c-0.5,15.9-0.3,32-0.3,47.9c0,0.9,0,1.8,0,3.1c-2.1-0.3-2.4-0.2-4.9-0.7
	c-8.8-1.9-9-2.4-17.3-5.8c-2.7-1.2-3.1-1.7-3.1-4.1c0-11.7,0-23.6,0.3-35.4c0-3-1.5-5.5-6.2-7.4c-2.3-0.9-5.3-2.4-10.3-3.9
	c-6.5-2.1-8.8-1.7-16.9-1.2c0.8,7.3,7,13.6,12.6,20.5c-7.7,2.2-14.3,4.3-22,6.4C465.8,291.3,499.1,236.5,578.3,221.4z M518.8,281.1
	c7,0.9,11.3,0.2,18.4-2.1c6.5-2.3,9.6-3,12.2-4.3c2.6-1.2,3.6-2.6,3.6-4.4c0-5.9,0-11.6,0-17.5c0-0.7,0-0.7,0.1-3.1
	C535.6,257,521.9,269.6,518.8,281.1z"/>
<path class="st4" d="M-256.9,414.6h-16c0,0-4-22.4,22.6-44.4c26.6-22,49-26.9,65.4-29.1v16.6c0,0-19.1,3.8-27.2,8.9v99.8l-14.8-9.3
	c0,0-3.3-1.4-3.2-11.4c0.1-10,0-70.6,0-70.6s-9.9,6.1-18,16.2C-256.2,401.5-256.9,414.6-256.9,414.6z"/>
<path class="st1" d="M668.5,221.4c2.7,0.5,4.8,0.8,6.7,1.3c43.6,11.4,69.3,28.8,79.1,52.6c1.1,2.3,0.3,4.3-3.5,5.9
	c-5.3,2.5-10.6,5.1-16.5,7.8c2.9,1.4,5.3,2.7,7.7,3.9c3.2,1.7,6.7,3.3,9.8,4.8c2.4,1,3.5,2.5,2.7,3.9c-4.8,7.7-8.2,14.6-16.4,21.7
	c-2.2,1.6-1.4,1-2.2,1.6c-19.2-7.4,0,0-19.2-7.4c3.7-4.7,7.1-8.6,11-13.5c-4.7-3.3-6.9-4.3-11.5-6.5c-2.9-1.4-16.2-1.3-20.5-0.9
	c-0.3,1.2-0.5,2.3-0.5,3.5c0,13.7,0,27.5,0,41.2c0,0.8,0,1.7,0,2.5c0,2.6,0.9,4.3-3.9,5.5c-5.1,1.3-9.8,2.9-14.9,4.2
	c-2.4,0.7-4.8,1.2-8,1.8C668.5,310.9,668.5,266.3,668.5,221.4z M694.9,281.6c5.3,0.8,13.1,0.3,22-1.7c3.5-1.3,5.8-2.4,8.5-3.6
	c2.9-1.3,2.7-2.9,1.4-4.8c-4-5.9-7.5-11.2-16.3-16.2c-4.8-2.4-9-4.8-15.4-5.9C692.6,253.1,692.5,275.2,694.9,281.6z"/>
<path class="st4" d="M-23.9,414.6h16c0,0,4-22.4-22.6-44.4c-26.6-22-49-26.9-65.4-29.1v16.6c0,0,19.1,3.8,27.2,8.9v99.8l14.8-9.3
	c0,0,3.3-1.4,3.2-11.4s0-70.6,0-70.6s9.9,6.1,18,16.2S-23.9,414.6-23.9,414.6z"/>
<path class="st5" d="M253.1,597.6"/>
<g>
	<path class="st5" d="M-183.8,339.7c0,0-32.2,4.9-58.2,21.8c-25.9,17-30,38.2-30,38.2s-5.4,26.5,19.3,42.3l16.5-4.8
		c0,0-16.8-17.7-12.1-21.7s25-3.5,31.5,0.3c0,0,15.9,9.3,15.9,24s0,30.6,0,30.6l17,4v-44.1c0,0-2.2-21.3-22-25.9l18.3-8.9
		c0,0,4.2-1.6,4.2-15.4C-183.3,362.8-183.8,339.7-183.8,339.7z"/>
	<path class="st5" d="M-251.3,398.9c0,0,16.4,2.9,28.5-2.1s22.5-11.2,22.5-11.2l0.1-25.6C-200.3,359.9-239.8,365.8-251.3,398.9z"/>
</g>
<path class="st6" d="M330,613.8"/>
<path class="st3" d="M281.5,503.7"/>
<g>
	<path class="st6" d="M-184.1,475V340.2c0,0,29-8.3,87.3,0v53.7c0,0,0.1,3-1.3,4.1s-14.2,10.1-14.2,10.1l14.5,10.6c0,0,1,0.5,1,4.1
		s0,51.8,0,51.8s-11.3,3.1-16.8,3.1v-50.5c0,0-0.2-5-1.4-6.9c-1.9-3.3-5.3-5-5.3-5s-4-2.7-23.3-2.7c-21.3,0-23.6,0-23.6,0v65.1
		C-167.1,477.6-175.8,476.7-184.1,475z"/>
	<path class="st7" d="M-167.4,351.7c0,0,15.1-5,54.5,0v37.8c0,0-0.3,3.2-2,4.9c-1.7,1.7-6.3,2.5-6.3,2.5h-46.1V351.7z"/>
</g>
<g>
	<path class="st7" d="M-95.8,474c0,0,5.9-0.5,17-4.4v-53.6h20.1c0,0,15-1.5,25.8,8.2l-10.3,13.7l15.8,6.6c0,0,12.4-10.8,16.9-23.1
		c0,0,1.5-2.7,0-3.7s-19.6-10-19.6-10l18.6-9c0,0,3.2-1,1-5.5s-8.8-21.7-35.8-35.7s-49.7-17.4-49.7-17.4L-95.8,474z"/>
	<path class="st7" d="M-78.8,399.9v-39.3c0,0,14.6,3.1,27.5,11.6s20.6,18.6,19.3,19.3c-4.8,2.3-17,7.6-26.8,8.1
		C-71.3,400.4-78.8,399.9-78.8,399.9z"/>
</g>
<path class="st8" d="M263.1,452.7"/>
<polygon class="st3" points="302.6,484.8 302.6,467.8 302.6,467.8 302.6,484.8 "/>
<g>
	<path class="st9" d="M-186.2,342.5v51.8c0,0,0.9,3.7-3.6,5.8c-4.5,2.2-15.2,7.6-15.2,7.6l15.2,8c0,0,3.8,1.2,3.8,11.5
		s0,45.3,0,45.3s-36.8-8.9-65.1-26.8s-21.4-46.4-21.4-46.4s4.3-24.1,38.4-39.9C-200,343.5-186.2,342.5-186.2,342.5z"/>
	<path class="st9" d="M-203.2,378.1v7.5c0,0,0.1,4.6-10,9.4c-11.5,5.6-11.5,6.6-26.6,6.2c-15.2-0.4-15-1.4-15-1.4
		s5.6-17.1,28.5-27.9c15.7-7.4,23.1-8,23.1-8V378.1z"/>
	<path class="st9" d="M-203.2,437.2v-7.5c0,0,0.1-4.6-10-9.4c-11.5-5.6-11.5-6.6-26.6-6.2c-15.2,0.4-15,1.4-15,1.4
		s5.6,17.1,28.5,27.9c15.7,7.4,23.1,8,23.1,8V437.2z"/>
</g>
<g>
	<path class="st9" d="M-183.3,341.3c0,0,37.5-9.5,85.5,0v53c0,0,0.1,3.9-9,7.9c-9.1,4.1-11,5.4-11,5.4l17.8,8.7c0,0,2.1,0.3,2.1,7.2
		c0,6.8,0,50.7,0,50.7s-31,6.5-85.5-0.1V341.3z"/>
	<path class="st9" d="M-166.3,462.3c0,0,17.8,5.2,50.3,0V428c0,0,0-5.1-3.3-7.1s-13.5-7.7-13.5-7.7s-1.3-1-3.7-1s-29.8,0-29.8,0
		V462.3z"/>
	<path class="st9" d="M-166.3,351.6c0,0,17.8-5.2,50.3,0v34.3c0,0,0,5.1-3.3,7.1s-13.5,7.7-13.5,7.7s-1.3,1-3.7,1s-29.8,0-29.8,0
		V351.6z"/>
</g>
<g>
	<path class="st9" d="M-95.6,341.3v132.2c0,0,33.7-8,52.3-18.9c18.7-10.9,32.4-31.4,32.4-31.4s5.4-5.5-1.8-8.9
		c-7.2-3.4-15.5-7.3-15.5-7.3l18.2-8.7c0,0,2.1-1.3,0.7-4.6s-11-24.8-38.6-36.9S-95.6,341.3-95.6,341.3z"/>
	<path class="st9" d="M-78.3,401.6c0,0,24,2.8,49.8-9.6c0,0,4.1-0.6-2.4-7.3s-13.6-13.8-26.1-17.9s-21.3-5.5-21.3-5.5V401.6z"/>
	<path class="st9" d="M-78.3,412.7c0,0,24-2.8,49.8,9.6c0,0,4.1,0.6-2.4,7.3s-13.6,13.8-26.1,17.9s-21.3,5.5-21.3,5.5V412.7z"/>
</g>
</svg>
